<mxfile host="Electron" modified="2024-05-18T16:21:20.457Z" agent="Mozilla/5.0 (Windows NT 10.0; Win64; x64) AppleWebKit/537.36 (KHTML, like Gecko) draw.io/24.4.0 Chrome/120.0.6099.109 Electron/28.1.0 Safari/537.36" etag="JpVhkq3cMnXXYcSHr1uh" version="24.4.0" type="device">
  <diagram id="R2lEEEUBdFMjLlhIrx00" name="Page-1">
    <mxGraphModel dx="2243" dy="899" grid="0" gridSize="10" guides="1" tooltips="1" connect="1" arrows="1" fold="1" page="0" pageScale="1" pageWidth="850" pageHeight="1100" math="0" shadow="0" extFonts="Permanent Marker^https://fonts.googleapis.com/css?family=Permanent+Marker">
      <root>
        <mxCell id="0" />
        <mxCell id="1" parent="0" />
        <mxCell id="LwIgGkC34iZA9kXrPDGG-1" value="Tower" style="swimlane;fontStyle=0;childLayout=stackLayout;horizontal=1;startSize=26;horizontalStack=0;resizeParent=1;resizeParentMax=0;resizeLast=0;collapsible=1;marginBottom=0;align=center;fontSize=14;" parent="1" vertex="1">
          <mxGeometry x="403" y="328" width="160" height="114" as="geometry" />
        </mxCell>
        <mxCell id="LwIgGkC34iZA9kXrPDGG-4" value="+ rate: float&lt;div&gt;+ priceBuild: float&lt;/div&gt;&lt;div&gt;+ priceSell: float&lt;/div&gt;&lt;div&gt;+ range: float&lt;/div&gt;&lt;div&gt;+ pos: Vector3&lt;/div&gt;" style="text;strokeColor=none;fillColor=none;spacingLeft=4;spacingRight=4;overflow=hidden;rotatable=0;points=[[0,0.5],[1,0.5]];portConstraint=eastwest;fontSize=12;whiteSpace=wrap;html=1;" parent="LwIgGkC34iZA9kXrPDGG-1" vertex="1">
          <mxGeometry y="26" width="160" height="88" as="geometry" />
        </mxCell>
        <mxCell id="1PvnKiyRxnyRINmaI7Is-1" value="Bullet" style="swimlane;fontStyle=0;childLayout=stackLayout;horizontal=1;startSize=26;horizontalStack=0;resizeParent=1;resizeParentMax=0;resizeLast=0;collapsible=1;marginBottom=0;align=center;fontSize=14;" vertex="1" parent="1">
          <mxGeometry x="259" y="224" width="160" height="66" as="geometry" />
        </mxCell>
        <mxCell id="1PvnKiyRxnyRINmaI7Is-2" value="+ dmg: float&lt;div&gt;+ speedMove: float&lt;/div&gt;" style="text;strokeColor=none;fillColor=none;spacingLeft=4;spacingRight=4;overflow=hidden;rotatable=0;points=[[0,0.5],[1,0.5]];portConstraint=eastwest;fontSize=12;whiteSpace=wrap;html=1;" vertex="1" parent="1PvnKiyRxnyRINmaI7Is-1">
          <mxGeometry y="26" width="160" height="40" as="geometry" />
        </mxCell>
        <mxCell id="1PvnKiyRxnyRINmaI7Is-3" value="Ability" style="swimlane;fontStyle=0;childLayout=stackLayout;horizontal=1;startSize=26;horizontalStack=0;resizeParent=1;resizeParentMax=0;resizeLast=0;collapsible=1;marginBottom=0;align=center;fontSize=14;" vertex="1" parent="1">
          <mxGeometry x="156" y="318" width="160" height="66" as="geometry" />
        </mxCell>
        <mxCell id="1PvnKiyRxnyRINmaI7Is-4" value="+ duration: float&lt;div&gt;+ dmg: float&lt;/div&gt;" style="text;strokeColor=none;fillColor=none;spacingLeft=4;spacingRight=4;overflow=hidden;rotatable=0;points=[[0,0.5],[1,0.5]];portConstraint=eastwest;fontSize=12;whiteSpace=wrap;html=1;" vertex="1" parent="1PvnKiyRxnyRINmaI7Is-3">
          <mxGeometry y="26" width="160" height="40" as="geometry" />
        </mxCell>
        <mxCell id="1PvnKiyRxnyRINmaI7Is-5" value="Upgrade" style="swimlane;fontStyle=0;childLayout=stackLayout;horizontal=1;startSize=26;horizontalStack=0;resizeParent=1;resizeParentMax=0;resizeLast=0;collapsible=1;marginBottom=0;align=center;fontSize=14;" vertex="1" parent="1">
          <mxGeometry x="124" y="428" width="160" height="86" as="geometry" />
        </mxCell>
        <mxCell id="1PvnKiyRxnyRINmaI7Is-6" value="+ money: float&lt;div&gt;+ towers: List&amp;lt;Tower&amp;gt;&lt;/div&gt;&lt;div&gt;+ abilities: List&amp;lt;Ability&amp;gt;&lt;/div&gt;" style="text;strokeColor=none;fillColor=none;spacingLeft=4;spacingRight=4;overflow=hidden;rotatable=0;points=[[0,0.5],[1,0.5]];portConstraint=eastwest;fontSize=12;whiteSpace=wrap;html=1;" vertex="1" parent="1PvnKiyRxnyRINmaI7Is-5">
          <mxGeometry y="26" width="160" height="60" as="geometry" />
        </mxCell>
        <mxCell id="1PvnKiyRxnyRINmaI7Is-7" value="Ground" style="swimlane;fontStyle=0;childLayout=stackLayout;horizontal=1;startSize=26;horizontalStack=0;resizeParent=1;resizeParentMax=0;resizeLast=0;collapsible=1;marginBottom=0;align=center;fontSize=14;" vertex="1" parent="1">
          <mxGeometry x="379" y="502" width="160" height="50" as="geometry" />
        </mxCell>
        <mxCell id="1PvnKiyRxnyRINmaI7Is-8" value="+ towers: List&amp;lt;Tower&amp;gt;" style="text;strokeColor=none;fillColor=none;spacingLeft=4;spacingRight=4;overflow=hidden;rotatable=0;points=[[0,0.5],[1,0.5]];portConstraint=eastwest;fontSize=12;whiteSpace=wrap;html=1;" vertex="1" parent="1PvnKiyRxnyRINmaI7Is-7">
          <mxGeometry y="26" width="160" height="24" as="geometry" />
        </mxCell>
        <mxCell id="1PvnKiyRxnyRINmaI7Is-9" value="Environment" style="swimlane;fontStyle=0;childLayout=stackLayout;horizontal=1;startSize=26;horizontalStack=0;resizeParent=1;resizeParentMax=0;resizeLast=0;collapsible=1;marginBottom=0;align=center;fontSize=14;" vertex="1" parent="1">
          <mxGeometry x="160" y="566" width="160" height="76" as="geometry" />
        </mxCell>
        <mxCell id="1PvnKiyRxnyRINmaI7Is-10" value="+ ground: Ground&lt;div&gt;+ obstacles: List&amp;lt;Obstacle&amp;gt;&lt;/div&gt;" style="text;strokeColor=none;fillColor=none;spacingLeft=4;spacingRight=4;overflow=hidden;rotatable=0;points=[[0,0.5],[1,0.5]];portConstraint=eastwest;fontSize=12;whiteSpace=wrap;html=1;" vertex="1" parent="1PvnKiyRxnyRINmaI7Is-9">
          <mxGeometry y="26" width="160" height="50" as="geometry" />
        </mxCell>
        <mxCell id="1PvnKiyRxnyRINmaI7Is-11" value="Obstacle" style="swimlane;fontStyle=0;childLayout=stackLayout;horizontal=1;startSize=26;horizontalStack=0;resizeParent=1;resizeParentMax=0;resizeLast=0;collapsible=1;marginBottom=0;align=center;fontSize=14;" vertex="1" parent="1">
          <mxGeometry x="383" y="612" width="160" height="98" as="geometry" />
        </mxCell>
        <mxCell id="1PvnKiyRxnyRINmaI7Is-12" value="+ pos: Vector3&lt;div&gt;+ health: int&lt;/div&gt;&lt;div&gt;+ moneyDestroyed: int&lt;/div&gt;&lt;div&gt;+ name: ObstacleName&lt;/div&gt;" style="text;strokeColor=none;fillColor=none;spacingLeft=4;spacingRight=4;overflow=hidden;rotatable=0;points=[[0,0.5],[1,0.5]];portConstraint=eastwest;fontSize=12;whiteSpace=wrap;html=1;" vertex="1" parent="1PvnKiyRxnyRINmaI7Is-11">
          <mxGeometry y="26" width="160" height="72" as="geometry" />
        </mxCell>
        <mxCell id="1PvnKiyRxnyRINmaI7Is-13" value="&lt;&lt;Enumeration&gt;&gt;&#xa;ObstacleName" style="swimlane;fontStyle=0;childLayout=stackLayout;horizontal=1;startSize=60;horizontalStack=0;resizeParent=1;resizeParentMax=0;resizeLast=0;collapsible=1;marginBottom=0;align=center;fontSize=14;" vertex="1" parent="1">
          <mxGeometry x="584" y="506" width="160" height="132" as="geometry" />
        </mxCell>
        <mxCell id="1PvnKiyRxnyRINmaI7Is-14" value="Tree&lt;div&gt;Rock&lt;/div&gt;&lt;div&gt;House&lt;/div&gt;&lt;div&gt;Brush&lt;/div&gt;" style="text;strokeColor=none;fillColor=none;spacingLeft=4;spacingRight=4;overflow=hidden;rotatable=0;points=[[0,0.5],[1,0.5]];portConstraint=eastwest;fontSize=12;whiteSpace=wrap;html=1;" vertex="1" parent="1PvnKiyRxnyRINmaI7Is-13">
          <mxGeometry y="60" width="160" height="72" as="geometry" />
        </mxCell>
        <mxCell id="1PvnKiyRxnyRINmaI7Is-15" value="Level" style="swimlane;fontStyle=0;childLayout=stackLayout;horizontal=1;startSize=26;horizontalStack=0;resizeParent=1;resizeParentMax=0;resizeLast=0;collapsible=1;marginBottom=0;align=center;fontSize=14;" vertex="1" parent="1">
          <mxGeometry x="-56" y="754" width="216" height="144" as="geometry" />
        </mxCell>
        <mxCell id="1PvnKiyRxnyRINmaI7Is-16" value="+ amountTower: int&lt;div&gt;+ moneyInit: int&lt;/div&gt;&lt;div&gt;+ health: float&lt;/div&gt;&lt;div&gt;+ reward: Reward&lt;/div&gt;&lt;div&gt;+ environment: Environment&lt;/div&gt;&lt;div&gt;+ waves: List&amp;lt;Wave&amp;gt;&lt;/div&gt;&lt;div&gt;+ gameManager: GameManager&lt;/div&gt;" style="text;strokeColor=none;fillColor=none;spacingLeft=4;spacingRight=4;overflow=hidden;rotatable=0;points=[[0,0.5],[1,0.5]];portConstraint=eastwest;fontSize=12;whiteSpace=wrap;html=1;" vertex="1" parent="1PvnKiyRxnyRINmaI7Is-15">
          <mxGeometry y="26" width="216" height="118" as="geometry" />
        </mxCell>
        <mxCell id="1PvnKiyRxnyRINmaI7Is-17" value="GameManager" style="swimlane;fontStyle=0;childLayout=stackLayout;horizontal=1;startSize=26;horizontalStack=0;resizeParent=1;resizeParentMax=0;resizeLast=0;collapsible=1;marginBottom=0;align=center;fontSize=14;" vertex="1" parent="1">
          <mxGeometry x="-333" y="568" width="216" height="74" as="geometry" />
        </mxCell>
        <mxCell id="1PvnKiyRxnyRINmaI7Is-18" value="+ hasSound: bool&lt;div&gt;+ hasMusic: bool&lt;/div&gt;" style="text;strokeColor=none;fillColor=none;spacingLeft=4;spacingRight=4;overflow=hidden;rotatable=0;points=[[0,0.5],[1,0.5]];portConstraint=eastwest;fontSize=12;whiteSpace=wrap;html=1;" vertex="1" parent="1PvnKiyRxnyRINmaI7Is-17">
          <mxGeometry y="26" width="216" height="48" as="geometry" />
        </mxCell>
        <mxCell id="1PvnKiyRxnyRINmaI7Is-21" value="Reward" style="swimlane;fontStyle=0;childLayout=stackLayout;horizontal=1;startSize=26;horizontalStack=0;resizeParent=1;resizeParentMax=0;resizeLast=0;collapsible=1;marginBottom=0;align=center;fontSize=14;" vertex="1" parent="1">
          <mxGeometry x="282" y="744" width="216" height="78" as="geometry" />
        </mxCell>
        <mxCell id="1PvnKiyRxnyRINmaI7Is-22" value="+ amountStar: int&lt;div&gt;+ money: float&lt;/div&gt;" style="text;strokeColor=none;fillColor=none;spacingLeft=4;spacingRight=4;overflow=hidden;rotatable=0;points=[[0,0.5],[1,0.5]];portConstraint=eastwest;fontSize=12;whiteSpace=wrap;html=1;" vertex="1" parent="1PvnKiyRxnyRINmaI7Is-21">
          <mxGeometry y="26" width="216" height="52" as="geometry" />
        </mxCell>
        <mxCell id="1PvnKiyRxnyRINmaI7Is-23" value="Wave" style="swimlane;fontStyle=0;childLayout=stackLayout;horizontal=1;startSize=26;horizontalStack=0;resizeParent=1;resizeParentMax=0;resizeLast=0;collapsible=1;marginBottom=0;align=center;fontSize=14;" vertex="1" parent="1">
          <mxGeometry x="-65" y="566" width="160" height="76" as="geometry" />
        </mxCell>
        <mxCell id="1PvnKiyRxnyRINmaI7Is-24" value="+ path: List&amp;lt;Vector2&amp;gt;&lt;div&gt;+ gates: Gate[]&lt;/div&gt;" style="text;strokeColor=none;fillColor=none;spacingLeft=4;spacingRight=4;overflow=hidden;rotatable=0;points=[[0,0.5],[1,0.5]];portConstraint=eastwest;fontSize=12;whiteSpace=wrap;html=1;" vertex="1" parent="1PvnKiyRxnyRINmaI7Is-23">
          <mxGeometry y="26" width="160" height="50" as="geometry" />
        </mxCell>
        <mxCell id="1PvnKiyRxnyRINmaI7Is-25" value="Gate" style="swimlane;fontStyle=0;childLayout=stackLayout;horizontal=1;startSize=26;horizontalStack=0;resizeParent=1;resizeParentMax=0;resizeLast=0;collapsible=1;marginBottom=0;align=center;fontSize=14;" vertex="1" parent="1">
          <mxGeometry x="-50" y="384" width="160" height="126" as="geometry" />
        </mxCell>
        <mxCell id="1PvnKiyRxnyRINmaI7Is-35" value="+ enemies: List&amp;lt;Enemy&amp;gt;&lt;div&gt;+ pos: Vector3&lt;/div&gt;" style="text;strokeColor=none;fillColor=none;spacingLeft=4;spacingRight=4;overflow=hidden;rotatable=0;points=[[0,0.5],[1,0.5]];portConstraint=eastwest;fontSize=12;whiteSpace=wrap;html=1;" vertex="1" parent="1PvnKiyRxnyRINmaI7Is-25">
          <mxGeometry y="26" width="160" height="50" as="geometry" />
        </mxCell>
        <mxCell id="1PvnKiyRxnyRINmaI7Is-26" value="+ enemies: List&amp;lt;Enemy&amp;gt;&lt;div&gt;+ pos: Vector3&lt;/div&gt;" style="text;strokeColor=none;fillColor=none;spacingLeft=4;spacingRight=4;overflow=hidden;rotatable=0;points=[[0,0.5],[1,0.5]];portConstraint=eastwest;fontSize=12;whiteSpace=wrap;html=1;" vertex="1" parent="1PvnKiyRxnyRINmaI7Is-25">
          <mxGeometry y="76" width="160" height="50" as="geometry" />
        </mxCell>
        <mxCell id="1PvnKiyRxnyRINmaI7Is-27" value="Enemy" style="swimlane;fontStyle=0;childLayout=stackLayout;horizontal=1;startSize=26;horizontalStack=0;resizeParent=1;resizeParentMax=0;resizeLast=0;collapsible=1;marginBottom=0;align=center;fontSize=14;" vertex="1" parent="1">
          <mxGeometry x="-45" y="254" width="160" height="95" as="geometry" />
        </mxCell>
        <mxCell id="1PvnKiyRxnyRINmaI7Is-28" value="+ health: int&lt;div&gt;+ speedMove: float&lt;/div&gt;&lt;div&gt;+ name: string&lt;/div&gt;&lt;div&gt;+ dmg: float&lt;/div&gt;" style="text;strokeColor=none;fillColor=none;spacingLeft=4;spacingRight=4;overflow=hidden;rotatable=0;points=[[0,0.5],[1,0.5]];portConstraint=eastwest;fontSize=12;whiteSpace=wrap;html=1;" vertex="1" parent="1PvnKiyRxnyRINmaI7Is-27">
          <mxGeometry y="26" width="160" height="69" as="geometry" />
        </mxCell>
        <mxCell id="1PvnKiyRxnyRINmaI7Is-29" value="" style="edgeStyle=entityRelationEdgeStyle;fontSize=12;html=1;endArrow=ERoneToMany;rounded=0;exitX=1;exitY=0.5;exitDx=0;exitDy=0;entryX=0;entryY=0.25;entryDx=0;entryDy=0;" edge="1" parent="1" source="1PvnKiyRxnyRINmaI7Is-10" target="1PvnKiyRxnyRINmaI7Is-11">
          <mxGeometry width="100" height="100" relative="1" as="geometry">
            <mxPoint x="343" y="615" as="sourcePoint" />
            <mxPoint x="443" y="515" as="targetPoint" />
          </mxGeometry>
        </mxCell>
        <mxCell id="1PvnKiyRxnyRINmaI7Is-30" value="" style="edgeStyle=entityRelationEdgeStyle;fontSize=12;html=1;endArrow=ERmandOne;startArrow=ERmandOne;rounded=0;entryX=0;entryY=0.25;entryDx=0;entryDy=0;exitX=1;exitY=0.25;exitDx=0;exitDy=0;" edge="1" parent="1" source="1PvnKiyRxnyRINmaI7Is-9" target="1PvnKiyRxnyRINmaI7Is-7">
          <mxGeometry width="100" height="100" relative="1" as="geometry">
            <mxPoint x="230" y="650" as="sourcePoint" />
            <mxPoint x="330" y="550" as="targetPoint" />
          </mxGeometry>
        </mxCell>
        <mxCell id="1PvnKiyRxnyRINmaI7Is-31" value="" style="edgeStyle=orthogonalEdgeStyle;fontSize=12;html=1;endArrow=ERmandOne;startArrow=ERmandOne;rounded=0;exitX=0.25;exitY=0;exitDx=0;exitDy=0;entryX=0;entryY=0.25;entryDx=0;entryDy=0;" edge="1" parent="1" source="1PvnKiyRxnyRINmaI7Is-15" target="1PvnKiyRxnyRINmaI7Is-9">
          <mxGeometry width="100" height="100" relative="1" as="geometry">
            <mxPoint x="230" y="650" as="sourcePoint" />
            <mxPoint x="330" y="550" as="targetPoint" />
            <Array as="points">
              <mxPoint x="-2" y="675" />
              <mxPoint x="109" y="675" />
              <mxPoint x="109" y="578" />
            </Array>
          </mxGeometry>
        </mxCell>
        <mxCell id="1PvnKiyRxnyRINmaI7Is-32" value="" style="edgeStyle=entityRelationEdgeStyle;fontSize=12;html=1;endArrow=ERmandOne;startArrow=ERmandOne;rounded=0;exitX=1;exitY=0.25;exitDx=0;exitDy=0;entryX=0;entryY=0;entryDx=0;entryDy=0;" edge="1" parent="1" source="1PvnKiyRxnyRINmaI7Is-17" target="1PvnKiyRxnyRINmaI7Is-15">
          <mxGeometry width="100" height="100" relative="1" as="geometry">
            <mxPoint x="67" y="667" as="sourcePoint" />
            <mxPoint x="167" y="567" as="targetPoint" />
          </mxGeometry>
        </mxCell>
        <mxCell id="1PvnKiyRxnyRINmaI7Is-33" value="" style="edgeStyle=orthogonalEdgeStyle;fontSize=12;html=1;endArrow=ERoneToMany;rounded=0;exitX=0.5;exitY=0;exitDx=0;exitDy=0;entryX=0;entryY=0.25;entryDx=0;entryDy=0;" edge="1" parent="1" source="1PvnKiyRxnyRINmaI7Is-15" target="1PvnKiyRxnyRINmaI7Is-23">
          <mxGeometry width="100" height="100" relative="1" as="geometry">
            <mxPoint x="67" y="667" as="sourcePoint" />
            <mxPoint x="167" y="567" as="targetPoint" />
          </mxGeometry>
        </mxCell>
        <mxCell id="1PvnKiyRxnyRINmaI7Is-37" value="" style="edgeStyle=orthogonalEdgeStyle;fontSize=12;html=1;endArrow=ERoneToMany;rounded=0;entryX=0.75;entryY=0;entryDx=0;entryDy=0;exitX=0.5;exitY=0;exitDx=0;exitDy=0;" edge="1" parent="1" source="1PvnKiyRxnyRINmaI7Is-25" target="1PvnKiyRxnyRINmaI7Is-27">
          <mxGeometry width="100" height="100" relative="1" as="geometry">
            <mxPoint x="-36" y="512" as="sourcePoint" />
            <mxPoint x="64" y="412" as="targetPoint" />
            <Array as="points">
              <mxPoint x="30" y="365" />
              <mxPoint x="128" y="365" />
              <mxPoint x="128" y="200" />
              <mxPoint x="75" y="200" />
            </Array>
          </mxGeometry>
        </mxCell>
        <mxCell id="1PvnKiyRxnyRINmaI7Is-39" value="" style="edgeStyle=orthogonalEdgeStyle;fontSize=12;html=1;endArrow=ERoneToMany;rounded=0;entryX=1;entryY=0.25;entryDx=0;entryDy=0;exitX=1;exitY=0.25;exitDx=0;exitDy=0;" edge="1" parent="1" source="1PvnKiyRxnyRINmaI7Is-5" target="1PvnKiyRxnyRINmaI7Is-3">
          <mxGeometry width="100" height="100" relative="1" as="geometry">
            <mxPoint x="219" y="595" as="sourcePoint" />
            <mxPoint x="319" y="495" as="targetPoint" />
          </mxGeometry>
        </mxCell>
        <mxCell id="1PvnKiyRxnyRINmaI7Is-40" value="" style="edgeStyle=entityRelationEdgeStyle;fontSize=12;html=1;endArrow=ERoneToMany;rounded=0;entryX=0;entryY=0.25;entryDx=0;entryDy=0;exitX=1;exitY=0;exitDx=0;exitDy=0;" edge="1" parent="1" source="1PvnKiyRxnyRINmaI7Is-5" target="LwIgGkC34iZA9kXrPDGG-1">
          <mxGeometry width="100" height="100" relative="1" as="geometry">
            <mxPoint x="219" y="595" as="sourcePoint" />
            <mxPoint x="319" y="495" as="targetPoint" />
          </mxGeometry>
        </mxCell>
        <mxCell id="1PvnKiyRxnyRINmaI7Is-41" value="" style="edgeStyle=orthogonalEdgeStyle;fontSize=12;html=1;endArrow=ERoneToMany;rounded=0;entryX=1;entryY=0.25;entryDx=0;entryDy=0;exitX=0.5;exitY=0;exitDx=0;exitDy=0;" edge="1" parent="1" source="LwIgGkC34iZA9kXrPDGG-1" target="1PvnKiyRxnyRINmaI7Is-1">
          <mxGeometry width="100" height="100" relative="1" as="geometry">
            <mxPoint x="416" y="423" as="sourcePoint" />
            <mxPoint x="516" y="323" as="targetPoint" />
          </mxGeometry>
        </mxCell>
        <mxCell id="1PvnKiyRxnyRINmaI7Is-42" value="" style="endArrow=none;html=1;rounded=0;entryX=0;entryY=0.25;entryDx=0;entryDy=0;exitX=1;exitY=0.5;exitDx=0;exitDy=0;" edge="1" parent="1" source="1PvnKiyRxnyRINmaI7Is-12" target="1PvnKiyRxnyRINmaI7Is-13">
          <mxGeometry relative="1" as="geometry">
            <mxPoint x="386" y="498" as="sourcePoint" />
            <mxPoint x="546" y="498" as="targetPoint" />
          </mxGeometry>
        </mxCell>
        <mxCell id="1PvnKiyRxnyRINmaI7Is-45" value="" style="edgeStyle=entityRelationEdgeStyle;fontSize=12;html=1;endArrow=ERmandOne;startArrow=ERmandOne;rounded=0;exitX=1;exitY=0.5;exitDx=0;exitDy=0;entryX=0;entryY=0.25;entryDx=0;entryDy=0;" edge="1" parent="1" source="1PvnKiyRxnyRINmaI7Is-16" target="1PvnKiyRxnyRINmaI7Is-21">
          <mxGeometry width="100" height="100" relative="1" as="geometry">
            <mxPoint x="241" y="669" as="sourcePoint" />
            <mxPoint x="341" y="569" as="targetPoint" />
          </mxGeometry>
        </mxCell>
        <mxCell id="1PvnKiyRxnyRINmaI7Is-46" value="" style="edgeStyle=orthogonalEdgeStyle;fontSize=12;html=1;endArrow=ERoneToMany;rounded=0;exitX=0.25;exitY=0;exitDx=0;exitDy=0;entryX=0;entryY=0;entryDx=0;entryDy=0;" edge="1" parent="1" source="1PvnKiyRxnyRINmaI7Is-23" target="1PvnKiyRxnyRINmaI7Is-25">
          <mxGeometry width="100" height="100" relative="1" as="geometry">
            <mxPoint x="88" y="539" as="sourcePoint" />
            <mxPoint x="188" y="439" as="targetPoint" />
            <Array as="points">
              <mxPoint x="-25" y="543" />
              <mxPoint x="-89" y="543" />
              <mxPoint x="-89" y="384" />
              <mxPoint x="-65" y="384" />
            </Array>
          </mxGeometry>
        </mxCell>
      </root>
    </mxGraphModel>
  </diagram>
</mxfile>
